<mxfile host="app.diagrams.net" modified="2023-05-10T12:59:44.654Z" agent="Mozilla/5.0 (Windows NT 10.0; Win64; x64) AppleWebKit/537.36 (KHTML, like Gecko) Chrome/113.0.0.0 Safari/537.36 Edg/113.0.1774.35" etag="xTnOTX3y2NB58dYGPbR9" version="21.2.9" type="device">
  <diagram name="페이지-1" id="Jw_VSQ_Z35y2hl4-dUQj">
    <mxGraphModel dx="922" dy="1676" grid="1" gridSize="10" guides="1" tooltips="1" connect="1" arrows="1" fold="1" page="1" pageScale="1" pageWidth="827" pageHeight="1169" math="0" shadow="0">
      <root>
        <mxCell id="0" />
        <mxCell id="1" parent="0" />
        <mxCell id="ctPcMZ8cNtCoBixHX1E7-16" value="&lt;p style=&quot;border-color: var(--border-color); text-align: center; margin: 4px 0px 0px;&quot;&gt;&lt;font style=&quot;font-size: 24px;&quot;&gt;&lt;span style=&quot;background-color: initial; border-color: var(--border-color);&quot;&gt;User Interface::EmploymentwriteUI&lt;/span&gt;&lt;/font&gt;&lt;/p&gt;&lt;br&gt;&lt;hr style=&quot;font-size: 18px;&quot; size=&quot;1&quot;&gt;&lt;p style=&quot;margin: 0px 0px 0px 4px; font-size: 18px;&quot;&gt;&lt;font style=&quot;font-size: 18px;&quot;&gt;&lt;br&gt;&lt;/font&gt;&lt;/p&gt;&lt;hr size=&quot;1&quot;&gt;&lt;p style=&quot;border-color: var(--border-color); margin: 0px 0px 0px 4px; font-size: 16px;&quot;&gt;&lt;font style=&quot;font-size: 16px;&quot;&gt;&lt;font style=&quot;border-color: var(--border-color); text-align: center; font-size: 16px;&quot;&gt;searchExpiredEmployment&lt;/font&gt;()&lt;br style=&quot;border-color: var(--border-color);&quot;&gt;&lt;/font&gt;&lt;/p&gt;&lt;font style=&quot;font-size: 16px;&quot;&gt;&lt;font style=&quot;border-color: var(--border-color); text-align: center; font-size: 16px;&quot;&gt;&amp;nbsp;searchCmpleted&lt;/font&gt;Employment()&lt;br&gt;&lt;/font&gt;&lt;p style=&quot;border-color: var(--border-color); margin: 0px 0px 0px 4px; font-size: 16px;&quot;&gt;&lt;font style=&quot;font-size: 16px;&quot;&gt;closeEmployment()&lt;/font&gt;&lt;/p&gt;&lt;p style=&quot;border-color: var(--border-color); margin: 0px 0px 0px 4px; font-size: 16px;&quot;&gt;&lt;font style=&quot;background-color: initial; border-color: var(--border-color); text-align: center;&quot;&gt;createNew&lt;/font&gt;&lt;span style=&quot;background-color: initial;&quot;&gt;Employment()&lt;/span&gt;&lt;/p&gt;" style="verticalAlign=top;align=left;overflow=fill;fontSize=12;fontFamily=Helvetica;html=1;whiteSpace=wrap;" parent="1" vertex="1">
          <mxGeometry x="44" y="-180" width="616" height="210" as="geometry" />
        </mxCell>
        <mxCell id="ctPcMZ8cNtCoBixHX1E7-17" value="&lt;p style=&quot;border-color: var(--border-color); text-align: center; margin: 4px 0px 0px; font-size: 24px;&quot;&gt;&lt;font style=&quot;font-size: 24px;&quot;&gt;&lt;font style=&quot;font-size: 24px;&quot;&gt;&lt;span style=&quot;background-color: initial;&quot;&gt;Control::&lt;/span&gt;&lt;/font&gt;&lt;span style=&quot;background-color: initial;&quot;&gt;Employmentwrite&lt;/span&gt;&lt;/font&gt;&lt;/p&gt;&lt;hr style=&quot;font-size: 24px;&quot; size=&quot;1&quot;&gt;&lt;p style=&quot;margin:0px;margin-left:4px;&quot;&gt;&lt;font size=&quot;3&quot;&gt;&lt;br&gt;&lt;/font&gt;&lt;/p&gt;&lt;hr size=&quot;1&quot;&gt;&lt;p style=&quot;border-color: var(--border-color); margin: 0px 0px 0px 4px; font-size: 16px;&quot;&gt;&lt;font style=&quot;font-size: 16px;&quot;&gt;&lt;font style=&quot;border-color: var(--border-color); text-align: center; font-size: 16px;&quot;&gt;showExpired&lt;/font&gt;&lt;font style=&quot;border-color: var(--border-color); text-align: center; font-size: 16px;&quot;&gt;Employment()&lt;/font&gt;&lt;br&gt;&lt;/font&gt;&lt;/p&gt;&lt;p style=&quot;border-color: var(--border-color); margin: 0px 0px 0px 4px; font-size: 16px;&quot;&gt;&lt;font style=&quot;font-size: 16px;&quot;&gt;&lt;font style=&quot;border-color: var(--border-color); text-align: center; font-size: 16px;&quot;&gt;&lt;font style=&quot;border-color: var(--border-color); font-size: 16px;&quot;&gt;show&lt;/font&gt;&lt;font style=&quot;border-color: var(--border-color); font-size: 16px;&quot;&gt;Cmpleted&lt;/font&gt;Employment()&lt;/font&gt;&lt;br&gt;&lt;/font&gt;&lt;/p&gt;&lt;p style=&quot;border-color: var(--border-color); margin: 0px 0px 0px 4px; font-size: 16px;&quot;&gt;&lt;font style=&quot;font-size: 16px;&quot;&gt;closeEmployment()&lt;br&gt;&lt;/font&gt;&lt;/p&gt;&lt;p style=&quot;border-color: var(--border-color); margin: 0px 0px 0px 4px; font-size: 16px;&quot;&gt;&lt;font style=&quot;font-size: 16px;&quot;&gt;&lt;font style=&quot;border-color: var(--border-color); text-align: center; font-size: 16px;&quot;&gt;addNew&lt;/font&gt;&lt;font style=&quot;border-color: var(--border-color); text-align: center; font-size: 16px;&quot;&gt;Employment()&lt;/font&gt;&lt;/font&gt;&lt;br&gt;&lt;/p&gt;" style="verticalAlign=top;align=left;overflow=fill;fontSize=12;fontFamily=Helvetica;html=1;whiteSpace=wrap;" parent="1" vertex="1">
          <mxGeometry x="820" y="-180" width="530" height="205" as="geometry" />
        </mxCell>
        <mxCell id="ctPcMZ8cNtCoBixHX1E7-18" value="&lt;p style=&quot;border-color: var(--border-color); text-align: center; margin: 4px 0px 0px;&quot;&gt;&lt;font style=&quot;font-size: 24px;&quot;&gt;Employment&lt;br&gt;&lt;/font&gt;&lt;/p&gt;&lt;hr size=&quot;1&quot;&gt;&lt;p style=&quot;margin: 0px 0px 0px 4px; font-size: 16px;&quot;&gt;&lt;font style=&quot;font-size: 16px;&quot;&gt;NameEployment&lt;/font&gt;&lt;/p&gt;&lt;hr size=&quot;1&quot;&gt;&lt;p style=&quot;border-color: var(--border-color); margin: 0px 0px 0px 4px; font-size: 16px;&quot;&gt;&lt;/p&gt;&lt;font style=&quot;font-size: 16px;&quot;&gt;&amp;nbsp;listEmplyomentsD()&lt;br&gt;&lt;span style=&quot;text-align: center;&quot;&gt;&amp;nbsp;addNewEmployment()&lt;/span&gt;&lt;span style=&quot;background-color: initial;&quot;&gt;&lt;br&gt;&lt;/span&gt;&amp;nbsp;getEmployment()&lt;br&gt;&lt;font style=&quot;border-color: var(--border-color); text-align: center; font-size: 16px;&quot;&gt;&amp;nbsp;Delete&lt;/font&gt;Employment()&lt;br&gt;&lt;/font&gt;" style="verticalAlign=top;align=left;overflow=fill;fontSize=12;fontFamily=Helvetica;html=1;whiteSpace=wrap;" parent="1" vertex="1">
          <mxGeometry x="50" y="315" width="370" height="205" as="geometry" />
        </mxCell>
        <mxCell id="ctPcMZ8cNtCoBixHX1E7-20" value="&lt;p style=&quot;border-color: var(--border-color); text-align: center; margin: 4px 0px 0px;&quot;&gt;&lt;span style=&quot;background-color: initial;&quot;&gt;&lt;font style=&quot;font-size: 24px;&quot;&gt;EmploymentD&lt;/font&gt;&lt;/span&gt;&lt;/p&gt;&lt;hr size=&quot;1&quot;&gt;&lt;p style=&quot;border-color: var(--border-color); margin: 0px 0px 0px 4px; font-size: 16px;&quot;&gt;&lt;font style=&quot;border-color: var(--border-color);&quot;&gt;date&lt;/font&gt;&lt;/p&gt;&lt;p style=&quot;border-color: var(--border-color); margin: 0px 0px 0px 4px; font-size: 16px;&quot;&gt;&lt;font style=&quot;border-color: var(--border-color);&quot;&gt;dlimit&lt;/font&gt;&lt;/p&gt;&lt;p style=&quot;border-color: var(--border-color); margin: 0px 0px 0px 4px; font-size: 16px;&quot;&gt;&lt;font style=&quot;border-color: var(--border-color);&quot;&gt;people&lt;/font&gt;&lt;/p&gt;&lt;p style=&quot;border-color: var(--border-color); margin: 0px 0px 0px 4px; font-size: 16px;&quot;&gt;&lt;font style=&quot;border-color: var(--border-color);&quot;&gt;plimit&lt;/font&gt;&lt;/p&gt;&lt;hr style=&quot;font-size: 16px;&quot; size=&quot;1&quot;&gt;&lt;p style=&quot;border-color: var(--border-color); margin: 0px 0px 0px 4px; font-size: 16px;&quot;&gt;&lt;font style=&quot;font-size: 16px;&quot;&gt;getEmploymentDetails()&lt;/font&gt;&lt;/p&gt;&lt;p style=&quot;border-color: var(--border-color); margin: 0px 0px 0px 4px; font-size: 16px;&quot;&gt;&lt;font style=&quot;font-size: 16px;&quot;&gt;SetEmploymentDetails()&lt;br&gt;&lt;/font&gt;&lt;/p&gt;&lt;p style=&quot;border-color: var(--border-color); margin: 0px 0px 0px 4px; font-size: 16px;&quot;&gt;&lt;font style=&quot;font-size: 16px;&quot;&gt;&lt;font style=&quot;border-color: var(--border-color); text-align: center; font-size: 16px;&quot;&gt;DeleteEmploymentDetails()&lt;/font&gt;&lt;/font&gt;&lt;/p&gt;" style="verticalAlign=top;align=left;overflow=fill;fontSize=12;fontFamily=Helvetica;html=1;whiteSpace=wrap;" parent="1" vertex="1">
          <mxGeometry x="831.5" y="310" width="370" height="215" as="geometry" />
        </mxCell>
        <mxCell id="ctPcMZ8cNtCoBixHX1E7-22" value="&lt;p style=&quot;border-color: var(--border-color); text-align: center; margin: 4px 0px 0px;&quot;&gt;&lt;font style=&quot;font-size: 24px;&quot;&gt;&lt;span style=&quot;background-color: initial; border-color: var(--border-color);&quot;&gt;User Interface::Employmentinfo&lt;/span&gt;&lt;span style=&quot;background-color: initial; border-color: var(--border-color);&quot;&gt;UI&lt;/span&gt;&lt;br&gt;&lt;/font&gt;&lt;/p&gt;&lt;hr size=&quot;1&quot;&gt;&lt;p style=&quot;margin:0px;margin-left:4px;&quot;&gt;&lt;font size=&quot;3&quot;&gt;&lt;br&gt;&lt;/font&gt;&lt;/p&gt;&lt;hr size=&quot;1&quot;&gt;&lt;p style=&quot;border-color: var(--border-color); margin: 0px 0px 0px 4px; font-size: 16px;&quot;&gt;&lt;font style=&quot;font-size: 16px;&quot;&gt;&amp;nbsp;&lt;/font&gt;&lt;font style=&quot;font-size: 16px;&quot;&gt;startInterface()&lt;br&gt;&lt;/font&gt;&lt;/p&gt;&lt;p style=&quot;border-color: var(--border-color); margin: 0px 0px 0px 4px; font-size: 16px;&quot;&gt;&lt;font style=&quot;font-size: 16px;&quot;&gt;&amp;nbsp;selectEmployment()&lt;br&gt;&lt;/font&gt;&lt;/p&gt;&lt;p style=&quot;border-color: var(--border-color); margin: 0px 0px 0px 4px; font-size: 16px;&quot;&gt;&lt;font style=&quot;font-size: 16px;&quot;&gt;&lt;font style=&quot;border-color: var(--border-color); text-align: center; font-size: 16px;&quot;&gt;&amp;nbsp;Edit&lt;/font&gt;Employment()&lt;/font&gt;&lt;/p&gt;&lt;font style=&quot;font-size: 16px;&quot;&gt;&amp;nbsp; DeleteEmploymentDetails()&lt;/font&gt;" style="verticalAlign=top;align=left;overflow=fill;fontSize=12;fontFamily=Helvetica;html=1;whiteSpace=wrap;" parent="1" vertex="1">
          <mxGeometry x="45" y="90" width="475" height="180" as="geometry" />
        </mxCell>
        <mxCell id="ctPcMZ8cNtCoBixHX1E7-23" value="&lt;p style=&quot;border-color: var(--border-color); text-align: center; margin: 4px 0px 0px;&quot;&gt;&lt;font style=&quot;font-size: 24px;&quot;&gt;&lt;span style=&quot;background-color: initial;&quot;&gt;Control::Employmentinfo&lt;/span&gt;&lt;br&gt;&lt;/font&gt;&lt;/p&gt;&lt;hr size=&quot;1&quot;&gt;&lt;p style=&quot;margin:0px;margin-left:4px;&quot;&gt;&lt;font size=&quot;3&quot;&gt;&lt;br&gt;&lt;/font&gt;&lt;/p&gt;&lt;hr size=&quot;1&quot;&gt;&lt;p style=&quot;border-color: var(--border-color); margin: 0px 0px 0px 4px; font-size: 16px;&quot;&gt;&lt;font style=&quot;font-size: 16px;&quot;&gt;showEmploymentDetails()&lt;br&gt;&lt;/font&gt;&lt;/p&gt;&lt;p style=&quot;border-color: var(--border-color); margin: 0px 0px 0px 4px; font-size: 16px;&quot;&gt;&lt;font style=&quot;font-size: 16px;&quot;&gt;&lt;font style=&quot;border-color: var(--border-color); text-align: center; font-size: 16px;&quot;&gt;Edit&lt;/font&gt;Employment()&lt;/font&gt;&lt;/p&gt;&lt;p style=&quot;border-color: var(--border-color); margin: 0px 0px 0px 4px; font-size: 16px;&quot;&gt;&lt;font style=&quot;font-size: 16px;&quot;&gt;&lt;font style=&quot;background-color: initial; border-color: var(--border-color); text-align: center; font-size: 16px;&quot;&gt;Delete&lt;/font&gt;&lt;span style=&quot;background-color: initial;&quot;&gt;Employment()&lt;/span&gt;&lt;/font&gt;&lt;/p&gt;" style="verticalAlign=top;align=left;overflow=fill;fontSize=12;fontFamily=Helvetica;html=1;whiteSpace=wrap;" parent="1" vertex="1">
          <mxGeometry x="820" y="90" width="370" height="140" as="geometry" />
        </mxCell>
        <mxCell id="ctPcMZ8cNtCoBixHX1E7-27" value="&lt;pre style=&quot;unicode-bidi: isolate; font-size: 28px; line-height: 36px; background-color: rgb(248, 249, 250); border: none; padding: 2px 0.14em 2px 0px; position: relative; margin-top: -2px; margin-bottom: -2px; resize: none; font-family: inherit; overflow: hidden; text-align: left; width: 270.02px; overflow-wrap: break-word; color: rgb(32, 33, 36);&quot; dir=&quot;ltr&quot; id=&quot;tw-target-text&quot; data-placeholder=&quot;번역&quot; class=&quot;tw-data-text tw-text-large tw-ta&quot;&gt;owns&lt;/pre&gt;" style="text;html=1;strokeColor=none;fillColor=none;align=center;verticalAlign=middle;whiteSpace=wrap;rounded=0;" parent="1" vertex="1">
          <mxGeometry x="660" y="420" width="60" height="35" as="geometry" />
        </mxCell>
        <mxCell id="ctPcMZ8cNtCoBixHX1E7-29" value="&lt;font style=&quot;font-size: 18px;&quot;&gt;0..*&lt;/font&gt;" style="text;html=1;strokeColor=none;fillColor=none;align=center;verticalAlign=middle;whiteSpace=wrap;rounded=0;" parent="1" vertex="1">
          <mxGeometry x="420" y="360" width="60" height="30" as="geometry" />
        </mxCell>
        <mxCell id="ctPcMZ8cNtCoBixHX1E7-30" value="" style="ellipse;shape=umlEntity;whiteSpace=wrap;html=1;" parent="1" vertex="1">
          <mxGeometry x="320" y="315" width="30" height="30" as="geometry" />
        </mxCell>
        <mxCell id="ctPcMZ8cNtCoBixHX1E7-31" value="" style="ellipse;shape=umlEntity;whiteSpace=wrap;html=1;" parent="1" vertex="1">
          <mxGeometry x="1104.5" y="315" width="30" height="30" as="geometry" />
        </mxCell>
        <mxCell id="ctPcMZ8cNtCoBixHX1E7-33" value="" style="shape=umlBoundary;whiteSpace=wrap;html=1;" parent="1" vertex="1">
          <mxGeometry x="610" y="-175" width="30" height="30" as="geometry" />
        </mxCell>
        <mxCell id="ctPcMZ8cNtCoBixHX1E7-34" value="" style="shape=umlBoundary;whiteSpace=wrap;html=1;" parent="1" vertex="1">
          <mxGeometry x="480" y="90" width="30" height="30" as="geometry" />
        </mxCell>
        <mxCell id="ctPcMZ8cNtCoBixHX1E7-36" value="" style="ellipse;shape=umlControl;whiteSpace=wrap;html=1;" parent="1" vertex="1">
          <mxGeometry x="1300" y="-180" width="30" height="30" as="geometry" />
        </mxCell>
        <mxCell id="ctPcMZ8cNtCoBixHX1E7-37" value="" style="ellipse;shape=umlControl;whiteSpace=wrap;html=1;" parent="1" vertex="1">
          <mxGeometry x="1140" y="90" width="30" height="30" as="geometry" />
        </mxCell>
        <mxCell id="ctPcMZ8cNtCoBixHX1E7-39" value="" style="endArrow=diamondThin;endFill=1;endSize=24;html=1;rounded=0;entryX=1;entryY=0.5;entryDx=0;entryDy=0;exitX=0;exitY=0.5;exitDx=0;exitDy=0;" parent="1" source="ctPcMZ8cNtCoBixHX1E7-20" target="ctPcMZ8cNtCoBixHX1E7-18" edge="1">
          <mxGeometry width="160" relative="1" as="geometry">
            <mxPoint x="524.5" y="417" as="sourcePoint" />
            <mxPoint x="684.5" y="417" as="targetPoint" />
          </mxGeometry>
        </mxCell>
        <mxCell id="ctPcMZ8cNtCoBixHX1E7-43" value="" style="shape=mxgraph.arrows2.wedgeArrow;html=1;bendable=0;startWidth=13.333333333333336;fillColor=strokeColor;defaultFillColor=invert;defaultGradientColor=invert;rounded=0;" parent="1" edge="1">
          <mxGeometry width="100" height="100" relative="1" as="geometry">
            <mxPoint x="664.5" y="439.58000000000004" as="sourcePoint" />
            <mxPoint x="687.5" y="439.58000000000004" as="targetPoint" />
          </mxGeometry>
        </mxCell>
        <mxCell id="ctPcMZ8cNtCoBixHX1E7-46" value="&lt;font style=&quot;font-size: 18px;&quot;&gt;1&lt;/font&gt;" style="text;html=1;strokeColor=none;fillColor=none;align=center;verticalAlign=middle;whiteSpace=wrap;rounded=0;" parent="1" vertex="1">
          <mxGeometry x="771.5" y="360" width="60" height="30" as="geometry" />
        </mxCell>
      </root>
    </mxGraphModel>
  </diagram>
</mxfile>
